<svg width="45" height="45" viewBox="0 0 45 45" fill="none" xmlns="http://www.w3.org/2000/svg">
<path d="M10.8405 22.3423C15.6405 23.2423 21.0405 20.7423 23.1405 16.3423C24.8405 12.7423 24.1405 6.04235 19.4405 5.14235C15.7405 4.44235 13.3405 8.24235 13.8405 11.4423C14.9405 18.1423 22.8405 13.5423 19.3405 9.74235C21.0405 12.8423 16.6405 15.5423 15.1405 12.5423C13.8405 9.84235 16.3405 5.24235 19.7405 7.04235C23.5405 9.04235 22.5405 15.0423 20.0405 17.5423C17.6405 20.1423 14.2405 21.4423 10.8405 22.3423ZM30.0405 9.34234C31.2405 11.1423 28.7405 13.6423 27.2405 11.5423C25.6405 9.34235 28.3405 5.74235 30.7405 7.94235C35.0405 12.4423 28.0405 18.3423 23.1405 19.5423C27.0405 19.7423 31.6405 17.6423 33.1405 13.8423C34.1405 11.2423 33.6405 7.04234 30.6405 5.84234C27.3405 4.54234 24.5405 8.64235 26.1405 11.4423C28.2405 15.2423 32.4405 11.8423 30.0405 9.34234Z" fill="url(#paint0_linear_133_17765)"/>
<path d="M10.8405 23.3425C15.2405 23.7425 20.5405 24.0425 24.1405 26.7425C26.9405 28.8425 27.9405 33.7425 25.4405 36.4425C22.9405 39.1425 19.3405 36.4425 19.6405 33.2425C19.9405 29.4425 25.4405 30.5425 24.3405 34.1425C26.9405 29.3425 17.4405 27.4425 18.7405 34.9425C19.5405 39.6425 26.1405 40.5425 28.0405 36.1425C32.6405 25.0425 18.5405 21.2425 10.8405 23.3425Z" fill="url(#paint1_linear_133_17765)"/>
<path d="M20.6405 21.9424C24.5405 22.1424 34.2405 22.2424 33.1405 27.8424C32.6405 30.1424 29.5405 30.1424 29.7405 27.5424C29.8405 25.4424 32.5405 25.9424 32.1405 28.0424C34.1405 24.0424 26.5405 24.5424 28.8405 29.3424C30.3405 32.5424 34.5405 30.6424 34.8405 27.4424C35.4405 20.0424 25.1405 20.8424 20.6405 21.9424Z" fill="url(#paint2_linear_133_17765)"/>
<defs>
<linearGradient id="paint0_linear_133_17765" x1="27.3028" y1="5.03369" x2="18.918" y2="28.8309" gradientUnits="userSpaceOnUse">
<stop stop-color="#70F7F0"/>
<stop offset="0.21875" stop-color="#1D5FA6"/>
<stop offset="0.505208" stop-color="#70F7F0"/>
<stop offset="0.734375" stop-color="#1D5FA6"/>
<stop offset="1" stop-color="#70F7F0"/>
</linearGradient>
<linearGradient id="paint1_linear_133_17765" x1="23.9293" y1="22.7669" x2="15.1953" y2="44.0026" gradientUnits="userSpaceOnUse">
<stop stop-color="#70F7F0"/>
<stop offset="0.21875" stop-color="#1D5FA6"/>
<stop offset="0.505208" stop-color="#70F7F0"/>
<stop offset="0.734375" stop-color="#1D5FA6"/>
<stop offset="1" stop-color="#70F7F0"/>
</linearGradient>
<linearGradient id="paint2_linear_133_17765" x1="30.9259" y1="21.2212" x2="26.6425" y2="34.8169" gradientUnits="userSpaceOnUse">
<stop stop-color="#70F7F0"/>
<stop offset="0.21875" stop-color="#1D5FA6"/>
<stop offset="0.505208" stop-color="#70F7F0"/>
<stop offset="0.734375" stop-color="#1D5FA6"/>
<stop offset="1" stop-color="#70F7F0"/>
</linearGradient>
</defs>
</svg>
